<?xml version="1.0" encoding="utf-8"?>
<!-- Generator: Adobe Illustrator 25.2.3, SVG Export Plug-In . SVG Version: 6.00 Build 0)  -->
<svg version="1.1" id="Calque_1" xmlns="http://www.w3.org/2000/svg" xmlns:xlink="http://www.w3.org/1999/xlink" x="0px" y="0px"
	 viewBox="0 0 200 200" style="enable-background:new 0 0 200 200;" xml:space="preserve">
<style type="text/css">
	.st0{fill:none;stroke:#000000;stroke-width:10.9931;stroke-linecap:round;stroke-linejoin:round;stroke-miterlimit:10;}
</style>
<g>
	<path class="st0" d="M185.1,90.7l-78.4-59.3c-3.7-3.2-9.7-3.2-13.4,0L14.9,90.7c-2.1,1.8-0.6,5,2.4,5h30.8
		c-0.2,0.8-0.2,1.6-0.2,2.4v15.8v46.3c0,5.6,4.7,10.1,10.5,10.1h83.3c5.8,0,10.5-4.5,10.5-10.1V98.1c1-1,1.5-1.5,2.4-2.4h28.1
		C185.7,95.6,187.2,92.5,185.1,90.7z"/>
	<path class="st0" d="M82.8,169.7v-53.2c0-3.2,2.6-5.8,5.8-5.8h22.8c3.2,0,5.8,2.6,5.8,5.8v53.2"/>
</g>
</svg>
