<?xml version="1.0" encoding="utf-8"?>
<!-- Generator: Adobe Illustrator 25.2.3, SVG Export Plug-In . SVG Version: 6.00 Build 0)  -->
<svg version="1.1" id="Calque_1" xmlns="http://www.w3.org/2000/svg" xmlns:xlink="http://www.w3.org/1999/xlink" x="0px" y="0px"
	 viewBox="0 0 200 200" style="enable-background:new 0 0 200 200;" xml:space="preserve">
<g>
	<path d="M92.9,121.1C92.9,121.1,92.9,121.1,92.9,121.1c1.7,1.5,3.9,2.2,6,2.2c2.2,0,4.3-0.7,6-2.2l77.2-67.5
		c1.5-1.3,1.8-3.4,0.8-5.1c-18-29-49-46.2-83-46.2C65.5,2.3,34.2,20,16.3,49.8c-1,1.7-0.7,3.8,0.8,5.1L92.9,121.1z"/>
	<path d="M192.9,69.7c-0.4-1.3-1.4-2.3-2.7-2.6c-1.3-0.4-2.7,0-3.7,0.8l-33.8,29.6c-0.9,0.8-1.4,1.9-1.4,3s0.5,2.2,1.4,3l33.5,29.3
		c0.7,0.6,1.7,1,2.6,1c0.3,0,0.7,0,1-0.1c1.3-0.3,2.3-1.3,2.7-2.6c3.4-10.2,5.1-20.6,5.1-31.1C197.7,89.8,196.1,79.6,192.9,69.7z"/>
	<path d="M46.6,100.5c0-1.2-0.5-2.2-1.4-3L13.1,69.3c-1-0.9-2.4-1.2-3.7-0.8C8,68.9,7,69.9,6.6,71.2c-2.9,9.3-4.3,19-4.3,28.8
		c0,10.1,1.6,20.1,4.6,29.7c0.4,1.3,1.4,2.3,2.7,2.6c0.4,0.1,0.7,0.1,1.1,0.1c1,0,1.9-0.3,2.6-1l31.9-27.9
		C46.1,102.8,46.6,101.7,46.6,100.5z"/>
	<path d="M141.5,111.9c-1.5-1.3-3.7-1.3-5.2,0L114,131.4c-4.1,3.6-9.5,5.6-15,5.6c-5.5,0-10.9-2-15-5.6l-22.3-19.5
		c-1.5-1.3-3.7-1.3-5.3,0l-38.9,34c-1.5,1.3-1.8,3.4-0.8,5.1c18,29.3,49.1,46.7,83.3,46.7c33.6,0,64.4-17,82.5-45.5
		c1.1-1.7,0.7-3.8-0.7-5.1L141.5,111.9z"/>
</g>
</svg>
