<?xml version="1.0" encoding="utf-8"?>
<!-- Generator: Adobe Illustrator 25.2.3, SVG Export Plug-In . SVG Version: 6.00 Build 0)  -->
<svg version="1.1" id="Calque_1" xmlns="http://www.w3.org/2000/svg" xmlns:xlink="http://www.w3.org/1999/xlink" x="0px" y="0px"
	 viewBox="0 0 200 200" style="enable-background:new 0 0 200 200;" xml:space="preserve">
<style type="text/css">
	.st0{fill:#3B377F;}
</style>
<path class="st0" d="M109.2,3.7c-2.4-2.4-5.8-3.4-9-3.4s-6.3,1.2-9,3.4C71.7,21.5,27.6,67.5,27.6,115.9c0,27.8,14.4,47.5,30.2,60.9
	c2.4,1.9,6.1,1.5,7.8-1l5.8-8c1.7-2.2,1.2-5.6-0.7-7.3c-11.7-10.2-22.2-24.8-22.2-44.6c0-37.3,34.8-75.7,51.6-92.3
	c16.8,16.6,51.6,55,51.6,92.3c0,30.4-24.8,48.9-42.1,57.9v-24.8c0-0.5,0.2-1,0.5-1.5l28.2-26.8c1.9-1.7,1.9-4.6,0.2-6.6l-8-8.5
	c-1-1-1.9-1.5-3.2-1.5c-1.2,0-2.4,0.5-3.4,1.2l-11,10.7c-0.5,0.5-1.5,0.7-2.2,0.5c-0.7-0.2-1.2-1-1.2-1.7V69.4
	c0-2.7-2.2-4.6-4.6-4.6H93.4c-2.7,0-4.6,2.2-4.6,4.6v124.7c0,2.7,1.7,3.7,3.7,4.6c1,0.5,3.7,1,5.8,1c0.2,0,0.2,0,0.5,0
	c0.2,0,0.5,0,0.5,0l0,0c3.2,0,6.1-0.7,8-1.5c18.3-7.5,65-31.9,65-82.1C172.5,67.3,128.4,21.5,109.2,3.7z"/>
</svg>
